<svg xmlns="http://www.w3.org/2000/svg" viewBox="0 0 512 512">
  <defs>
    <linearGradient id="grad1" x1="0%" y1="0%" x2="100%" y2="100%">
      <stop offset="0%" style="stop-color:#6366f1;stop-opacity:1" />
      <stop offset="100%" style="stop-color:#a855f7;stop-opacity:1" />
    </linearGradient>
    <filter id="shadow">
      <feDropShadow dx="0" dy="4" stdDeviation="4" flood-opacity="0.25"/>
    </filter>
  </defs>
  
  <!-- Back Bubble -->
  <path d="M120 120 H320 A60 60 0 0 1 380 180 V260 A60 60 0 0 1 320 320 H280 L220 380 V320 H120 A60 60 0 0 1 60 260 V180 A60 60 0 0 1 120 120 Z" 
        fill="url(#grad1)" filter="url(#shadow)" opacity="0.9"/>
        
  <!-- Front Bubble -->
  <path d="M220 200 H420 A60 60 0 0 1 480 260 V340 A60 60 0 0 1 420 400 H360 V460 L300 400 H220 A60 60 0 0 1 160 340 V260 A60 60 0 0 1 220 200 Z" 
        fill="white" filter="url(#shadow)"/>
        
  <!-- Text Symbol 'B' or 'अ' inside? Let's keep it abstract or add simple lines -->
  <rect x="230" y="270" width="160" height="20" rx="10" fill="#a855f7" opacity="0.2"/>
  <rect x="230" y="310" width="100" height="20" rx="10" fill="#a855f7" opacity="0.2"/>
</svg>
